<svg width="20" height="20" viewBox="0 0 20 20" fill="none" xmlns="http://www.w3.org/2000/svg">
<path d="M17.3172 14.1922L13.5672 17.9422C13.4499 18.0595 13.2909 18.1253 13.125 18.1253C12.9591 18.1253 12.8001 18.0595 12.6828 17.9422C12.5655 17.8249 12.4997 17.6659 12.4997 17.5C12.4997 17.3341 12.5655 17.1751 12.6828 17.0578L15.3664 14.375H5.625C5.45924 14.375 5.30027 14.3092 5.18306 14.1919C5.06585 14.0747 5 13.9158 5 13.75V2.5C5 2.33424 5.06585 2.17527 5.18306 2.05806C5.30027 1.94085 5.45924 1.875 5.625 1.875C5.79076 1.875 5.94973 1.94085 6.06694 2.05806C6.18415 2.17527 6.25 2.33424 6.25 2.5V13.125H15.3664L12.6828 10.4422C12.5655 10.3249 12.4997 10.1659 12.4997 10C12.4997 9.83415 12.5655 9.67509 12.6828 9.55781C12.8001 9.44054 12.9591 9.37465 13.125 9.37465C13.2909 9.37465 13.4499 9.44054 13.5672 9.55781L17.3172 13.3078C17.3753 13.3659 17.4214 13.4348 17.4529 13.5107C17.4843 13.5865 17.5005 13.6679 17.5005 13.75C17.5005 13.8321 17.4843 13.9135 17.4529 13.9893C17.4214 14.0652 17.3753 14.1341 17.3172 14.1922Z" fill="white"/>
</svg>
