<?xml version="1.0" encoding="utf-8"?>
<!-- Generator: Adobe Illustrator 28.0.0, SVG Export Plug-In . SVG Version: 6.00 Build 0)  -->
<svg version="1.1" id="Ebene_1" xmlns="http://www.w3.org/2000/svg" xmlns:xlink="http://www.w3.org/1999/xlink" x="0px" y="0px"
	 viewBox="0 0 125 125" style="enable-background:new 0 0 125 125;" xml:space="preserve">
<style type="text/css">
	.st0{fill:#003333;}
</style>
<path class="st0" d="M93.8,0L93.8,0C76.5,0,62.5,14,62.5,31.2C62.5,14,48.5,0,31.3,0h0C14,0,0,14,0,31.2v0c0,17.3,14,31.2,31.2,31.2
	C14,62.5,0,76.5,0,93.7v0C0,111,14,125,31.2,125h0c17.3,0,31.2-14,31.2-31.2c0,17.3,14,31.2,31.2,31.2h0c17.3,0,31.2-14,31.2-31.2
	V62.5V31.2C125,14,111,0,93.8,0z M62.5,93.7c0-17.3-14-31.2-31.2-31.2c17.3,0,31.2-14,31.2-31.2v31.2V93.7z"/>
</svg>
