<svg id="Layer_1" data-name="Layer 1" xmlns="http://www.w3.org/2000/svg" xmlns:xlink="http://www.w3.org/1999/xlink" viewBox="0 0 238.69 205.58"><defs><style>.cls-1{fill:url(#radial-gradient);}.cls-2{fill:url(#linear-gradient);}.cls-3{fill:url(#linear-gradient-2);}.cls-4{fill:url(#linear-gradient-3);}.cls-5{fill:url(#linear-gradient-4);}.cls-6{fill:url(#radial-gradient-2);}.cls-7{fill:url(#linear-gradient-5);}.cls-8{fill:url(#linear-gradient-6);}.cls-9{fill:url(#linear-gradient-7);}.cls-10{fill:url(#linear-gradient-8);}</style><radialGradient id="radial-gradient" cx="143.68" cy="33.74" r="92.74" gradientUnits="userSpaceOnUse"><stop offset="0" stop-color="#ffd102"/><stop offset="1" stop-color="#e2c402"/></radialGradient><linearGradient id="linear-gradient" x1="183.33" y1="124.84" x2="132.32" y2="91.68" gradientUnits="userSpaceOnUse"><stop offset="0" stop-color="#e3bd02"/><stop offset="1" stop-color="#edb202"/></linearGradient><linearGradient id="linear-gradient-2" x1="95.87" y1="84.52" x2="115.2" y2="69.68" gradientUnits="userSpaceOnUse"><stop offset="0" stop-color="#e39802"/><stop offset="1" stop-color="#d69a02"/></linearGradient><linearGradient id="linear-gradient-3" x1="186.15" y1="133.33" x2="187.15" y2="19.33" gradientUnits="userSpaceOnUse"><stop offset="0" stop-color="#edc902"/><stop offset="0.08" stop-color="#edc302"/><stop offset="0.3" stop-color="#edb602"/><stop offset="0.52" stop-color="#edb202"/><stop offset="1" stop-color="#e6ad02"/><stop offset="1" stop-color="#e6ad02"/></linearGradient><linearGradient id="linear-gradient-4" x1="173.76" y1="129.36" x2="194.33" y2="55.13" gradientUnits="userSpaceOnUse"><stop offset="0" stop-color="#702500"/><stop offset="0" stop-color="#762900"/><stop offset="0.02" stop-color="#843301"/><stop offset="0.03" stop-color="#8c3801"/><stop offset="0.06" stop-color="#8e3a01"/><stop offset="0.22" stop-color="#b35e01"/><stop offset="0.38" stop-color="#ca7002"/><stop offset="0.85" stop-color="#d66902"/><stop offset="1" stop-color="#d07402"/></linearGradient><radialGradient id="radial-gradient-2" cx="87.9" cy="142.09" r="63.2" gradientTransform="translate(-128.48 129.02) rotate(-49.99)" xlink:href="#radial-gradient"/><linearGradient id="linear-gradient-5" x1="114.92" y1="204.18" x2="80.16" y2="181.57" gradientTransform="translate(-128.48 129.02) rotate(-49.99)" xlink:href="#linear-gradient"/><linearGradient id="linear-gradient-6" x1="55.32" y1="176.7" x2="68.49" y2="166.59" gradientTransform="translate(-128.48 129.02) rotate(-49.99)" xlink:href="#linear-gradient-2"/><linearGradient id="linear-gradient-7" x1="116.84" y1="209.96" x2="117.53" y2="132.27" gradientTransform="translate(-128.48 129.02) rotate(-49.99)" xlink:href="#linear-gradient-3"/><linearGradient id="linear-gradient-8" x1="108.4" y1="207.25" x2="122.42" y2="156.67" gradientTransform="translate(-128.48 129.02) rotate(-49.99)" xlink:href="#linear-gradient-4"/></defs><g id="Illustration"><g id="Object"><polygon class="cls-1" points="188.25 80.61 135.59 28.84 238.69 13.31 215.81 0 77.28 18.84 131.81 91.91 188.25 80.61"/><polygon class="cls-2" points="183.28 125.47 130.47 137.91 131.81 91.91 188.25 80.61 183.28 125.47"/><polygon class="cls-3" points="131.81 91.91 130.47 137.91 79.09 55.66 77.28 18.84 131.81 91.91"/><polygon class="cls-4" points="168.27 60.97 198.16 55.59 188.66 133.72 218.53 131.53 238.69 13.31 135.59 28.84 168.27 60.97"/><polygon class="cls-5" points="177.05 59.39 176.12 68.69 188.25 80.61 183.28 125.47 171.13 128.33 188.66 133.72 198.16 55.59 177.05 59.39"/></g></g><polyline class="cls-6" points="50.86 100.61 0 181.18 62.03 184.72 80.86 150.31 30.77 155.12 67.83 94.5 50.86 100.61"/><polyline class="cls-7" points="85.45 205.58 62.03 184.72 80.86 150.31 102.1 172.56 85.45 205.58"/><polyline class="cls-8" points="85.45 205.58 20.01 196.36 0 181.18 62.03 184.72 85.45 205.58"/><polygon class="cls-9" points="61.86 152.14 72.14 134.18 108.76 173.37 120.7 156.82 67.83 94.5 30.77 155.12 61.86 152.14"/><polygon class="cls-10" points="64.88 146.87 69.32 151.42 80.86 150.31 102.1 172.56 98.27 180.15 108.76 173.37 72.14 134.18 64.88 146.87"/></svg>